<svg xmlns="http://www.w3.org/2000/svg" id="Layer_1" data-name="Layer 1" xmlns="http://www.w3.org/2000/svg" viewBox="0 0 844.33 534.41"><defs><style>.cls-1{fill:#fff;}.cls-2{fill:#00abba;}</style></defs><path class="cls-1" d="M766.84,867V332.59H1021.9V412.2H858.25V549.32H980.62v79.61H858.25V867Z" transform="translate(-177.58 -332.59)"/><path class="cls-2" d="M177.58,466c0-73.2,43.06-132.76,136.35-132.76S450.27,392.84,450.27,466V733c0,73.2-43,132.76-136.34,132.76S177.58,806.19,177.58,733Zm89,264.8c0,38.75,11.49,57.41,47.37,57.41s47.36-18.66,47.36-57.41V468.19c0-38.75-11.48-57.41-47.36-57.41s-47.37,18.66-47.37,57.41Z" transform="translate(-177.58 -332.59)"/><path class="cls-2" d="M498.35,412.73V333H733.73v87.11L570.11,786.27H733.73V866H478.26V778.89L644,412.73Z" transform="translate(-177.58 -332.59)"/></svg>