<svg xmlns="http://www.w3.org/2000/svg" id="Layer_1" data-name="Layer 1" xmlns="http://www.w3.org/2000/svg" viewBox="0 0 1193.41 218.73"><defs><style>.cls-1{fill:#fff;}</style></defs><path class="cls-1" d="M253,682.92V470.46h101.8v31.78H289.49V557h48.85v31.79H289.49v94.16H253Z" transform="translate(-3.3 -467.14)"/><path class="cls-1" d="M368.37,522c0-30,17.66-54.44,55.91-54.44s55.91,24.42,55.91,54.44V631.42c0,30-17.66,54.44-55.91,54.44s-55.91-24.42-55.91-54.44Zm36.49,108.59c0,15.89,4.71,23.53,19.42,23.53s19.42-7.65,19.42-23.53V522.83c0-15.89-4.71-23.53-19.42-23.53s-19.42,7.65-19.42,23.53Z" transform="translate(-3.3 -467.14)"/><path class="cls-1" d="M536.68,682.92H500.19V470.46H551.4c40.9,0,61.78,17.36,61.78,62.68,0,34.13-13.24,48-25.59,53.56l30.9,96.22H581.42l-25.91-88a175.55,175.55,0,0,1-18.83.88Zm0-117.12h13c19.72,0,27.07-7.36,27.07-32.66s-7.35-32.66-27.07-32.66h-13Z" transform="translate(-3.3 -467.14)"/><path class="cls-1" d="M653.22,502.24H617.91V470.46H725v31.78H689.7V682.92H653.22Z" transform="translate(-3.3 -467.14)"/><path class="cls-1" d="M767.68,682.92H731.19V470.46H782.4c40.9,0,61.78,17.36,61.78,62.68,0,34.13-13.24,48-25.59,53.56l30.9,96.22H812.41l-25.91-88a175.55,175.55,0,0,1-18.83.88v87.11Zm0-117.12h13c19.72,0,27.07-7.36,27.07-32.66s-7.35-32.66-27.07-32.66h-13Z" transform="translate(-3.3 -467.14)"/><path class="cls-1" d="M863,682.92V470.46h97.7v31.78H899.51V557H946.6v31.79H899.51v62.38h65.34v31.78H863Z" transform="translate(-3.3 -467.14)"/><path class="cls-1" d="M1044.88,522.83c-1.47-18.23-11.19-23.53-19.43-23.53-11.77,0-18.25,7.65-18.25,20.89,0,36.19,74.16,53.56,74.16,111.23,0,35-23.55,54.44-57.68,54.44-33.84,0-53.26-27.07-54.73-58.85l34.72-5c1.47,21.48,10,32.07,21.78,32.07,12.65,0,21.18-6.77,21.18-19.42,0-42.08-74.15-53.26-74.15-114.17,0-33.84,20.6-53,56.5-53,29.72,0,47.38,21.48,50.61,51.5Z" transform="translate(-3.3 -467.14)"/><path class="cls-1" d="M1160.23,522.83c-1.47-18.23-11.19-23.53-19.43-23.53-11.77,0-18.25,7.65-18.25,20.89,0,36.19,74.15,53.56,74.15,111.23,0,35-23.54,54.44-57.68,54.44-33.84,0-53.26-27.07-54.73-58.85l34.72-5c1.47,21.48,10,32.07,21.78,32.07,12.65,0,21.19-6.77,21.19-19.42,0-42.08-74.16-53.26-74.16-114.17,0-33.84,20.6-53,56.5-53,29.72,0,47.38,21.48,50.62,51.5Z" transform="translate(-3.3 -467.14)"/><path class="cls-1" d="M3.3,521.64c0-30.05,17.68-54.5,56-54.5s56,24.45,56,54.5v109.6c0,30-17.68,54.5-56,54.5s-56-24.45-56-54.5ZM39.83,630.35c0,15.9,4.71,23.57,19.44,23.57s19.44-7.66,19.44-23.57V522.52C78.71,506.62,74,499,59.27,499s-19.44,7.66-19.44,23.57Z" transform="translate(-3.3 -467.14)"/><path class="cls-1" d="M135,501.89V470.07h96.63v34.78L164.45,651h67.17V682.8H126.74V648l68.05-146.13Z" transform="translate(-3.3 -467.14)"/></svg>